<svg xmlns="http://www.w3.org/2000/svg" version="1.1" xmlns:xlink="http://www.w3.org/1999/xlink" xmlns:svgjs="http://svgjs.dev/svgjs" viewBox="0 0 1920 1080" class="overflow-hidden rounded-md drop-shadow-lg transition duration-300" style="overflow: hidden; height: 85vh;"><rect width="1920" height="1080" fill="#1c1f6a"/><g clip-path="url(&quot;#SvgjsClipPath1149&quot;)"><g transform="matrix(0.9959292143521045,0.5749999999999998,-0.5749999999999998,0.9959292143521045,314.2975403262201,-534.2057715501546)"><path d="M0,-1080C3.961696086486455,-961.6748036107098,21.928860907110504,-592.2538455047321,23.77017651891873,-370.04882166425875C25.61149213072696,-147.84379782378537,24.050713943006087,48.95170246409191,11.047893670849362,253.2301430428404C-1.9549266013073634,457.5085836215889,-54.103658744300255,637.4552760234631,-54.24674511402162,855.6218218082324C-54.38983148374299,1073.7883675930018,1.148251266850906,1344.8330547194955,10.189375452521176,1562.2294177514568C19.230499638191446,1779.6257807834181,1.6982292420868628,2060.371569625243,0,2160L 1920 2160 L 1920 -1080 Z" fill="url(&quot;#SvgjsLinearGradient1147&quot;)"/><path d="M960,-1080C961.225030640454,-1011.6466622560893,971.4132005052542,-829.9769203495322,967.3501838427234,-669.8799735365354C963.2871671801926,-509.7830267235387,940.2641698893399,-272.6073747316461,935.621900024815,-119.41831912201968C930.9796301602901,33.77073648760671,932.3062414309445,102.75757823247525,939.4965646555742,249.25436012122293C946.6868878802038,395.75114200997064,973.4668715600343,588.4191557493427,978.7638393725925,759.5623722104663C984.0608071851508,930.7055886715898,975.9305724040069,1128.3926879343778,971.2783715309236,1276.113658887964C966.6261706578402,1423.8346298415502,952.73036272258,1498.573807746644,950.8506341340927,1645.8881979319833C948.9709055456054,1793.2025881173226,958.4751056890154,2074.3146996553305,960,2160L 1920 2160 L 1920 -1080 Z" fill="url(&quot;#SvgjsLinearGradient1148&quot;)"/></g></g><defs><linearGradient x1="0.1" y1="0" x2="0" y2="1" id="SvgjsLinearGradient1147"><stop stop-color="#1c1f6a" offset="0"/><stop stop-color="#1c2c6a" offset="0"/></linearGradient><linearGradient x1="0.1" y1="0" x2="0" y2="1" id="SvgjsLinearGradient1148"><stop stop-color="#8184de" offset="0"/><stop stop-color="#8193de" offset="0.5"/></linearGradient><clipPath id="SvgjsClipPath1149"><rect width="1920" height="1080"/></clipPath></defs></svg>