<svg xmlns="http://www.w3.org/2000/svg" version="1.1" xmlns:xlink="http://www.w3.org/1999/xlink" xmlns:svgjs="http://svgjs.dev/svgjs" viewBox="0 0 1920 1080" class="overflow-hidden rounded-md drop-shadow-lg transition duration-300" style="overflow: hidden; height: 85vh;"><rect width="1920" height="1080" fill="#5d3190"/><g clip-path="url(&quot;#SvgjsClipPath1348&quot;)"><g transform="matrix(1.0873463619392143,0.3744033776257301,-0.3744033776257301,1.0873463619392143,119.85781887893404,-400.0253256894489)"><path d="M0,-1080C1.7155528570742102,-976.69591133166,16.141650075225787,-678.196664734942,10.293317142445261,-460.1754679899601C4.444984209664734,-242.15427124497816,-35.21188578276969,-1.23211158119409,-35.08999759668316,228.12718046989187C-34.96810941059663,457.4864725209778,7.243217803523478,706.4015721140121,11.024646258964452,915.9802843165558C14.806074714405426,1125.5589965190995,-10.563985820876576,1278.26283440458,-12.401426864037319,1485.599453685154C-14.238867907198062,1692.936072965728,-2.0669044773395533,2047.5999089475256,0,2160L 1920 2160 L 1920 -1080 Z" fill="url(&quot;#SvgjsLinearGradient1346&quot;)"/><path d="M960,-1080C955.1630171373457,-1014.6560977370201,941.5180398203722,-816.6936139159301,930.9781028240743,-687.9365864221205C920.4381658277764,-559.1795589283109,899.7590145554615,-452.6753365684458,896.7603780222124,-307.45783503714256C893.7617414889634,-162.24033350583935,898.4289809993745,43.88642837866155,912.9862836245798,183.36842276569868C927.543586249785,322.8504171527358,981.6732148354632,396.24390080942624,984.1041937734442,529.4341312850802C986.5351727114252,662.6243617607341,934.2338898967866,855.0188502551945,927.5721572524656,982.5098056196225C920.9104246081445,1110.0007609840504,945.7759730439853,1165.4930579858915,944.1337979075179,1294.3798634716484C942.4916227710504,1423.2666689574053,915.0747394182472,1611.5606157794382,917.7191064336608,1755.8306385341634C920.3634734490745,1900.1006612888887,952.9531844056102,2092.638439755694,960,2160L 1920 2160 L 1920 -1080 Z" fill="url(&quot;#SvgjsLinearGradient1347&quot;)"/></g></g><defs><linearGradient x1="0.1" y1="0" x2="0" y2="1" id="SvgjsLinearGradient1346"><stop stop-color="#5d3190" offset="0"/><stop stop-color="#4d3190" offset="0"/></linearGradient><linearGradient x1="0.1" y1="0" x2="0" y2="1" id="SvgjsLinearGradient1347"><stop stop-color="#b99add" offset="0"/><stop stop-color="#ae9add" offset="0.5"/></linearGradient><clipPath id="SvgjsClipPath1348"><rect width="1920" height="1080"/></clipPath></defs></svg>