<svg xmlns="http://www.w3.org/2000/svg" version="1.1" xmlns:xlink="http://www.w3.org/1999/xlink" xmlns:svgjs="http://svgjs.dev/svgjs" viewBox="0 0 1920 1080" class="overflow-hidden rounded-md drop-shadow-lg transition duration-300" style="overflow: hidden; height: 85vh;"><rect width="1920" height="1080" fill="#5d3190"/><g clip-path="url(&quot;#SvgjsClipPath1147&quot;)"><g transform="matrix(0.5220890747004788,1.024657502816623,-1.024657502816623,0.5220890747004788,997.4433821179045,-694.1545552458381)"><path d="M0,-1080C-10.172894560816829,-963.5036983280484,-66.22927554893354,-588.4035840681468,-61.03736736490097,-381.02218996829026C-55.8454591808684,-173.64079586843377,19.941126853012335,-49.14145659284526,31.15144910419542,164.288364599139C42.36177135537851,377.71818579112323,17.22874940626412,666.6259285230329,6.224566142197546,899.5567371836152C-4.779617121869032,1132.4875458441975,-33.83622278983779,1351.7993394265682,-34.87365048020405,1561.8732165626323C-35.911078170570306,1771.9470936986963,-5.812275080034008,2060.3122027604386,0,2160L 1920 2160 L 1920 -1080 Z" fill="url(&quot;#SvgjsLinearGradient1143&quot;)"/><path d="M480,-1080C472.2968057300396,-954.7386012517084,441.6330758028613,-589.9460097486997,433.78083438023737,-328.43160751025044C425.92859295761343,-66.91720527180121,428.1466231736065,199.77890423700734,432.88655146425623,489.0864134306952C437.626479754906,778.3939226243831,454.368162701512,1128.927849890326,462.22040412413594,1407.4134476518766C470.0726455467599,1685.8990454134273,477.0367340206893,2034.5689079419794,480,2160L 1920 2160 L 1920 -1080 Z" fill="url(&quot;#SvgjsLinearGradient1144&quot;)"/><path d="M960,-1080C957.0387297714458,-983.4778516402196,932.448322527907,-681.2350087751649,942.2323786286745,-500.86710984131753C952.016434729442,-320.4992109074701,1008.4186730351212,-164.43697337199447,1018.7043366046053,2.2073936030847676C1028.9900001740893,168.851760578164,1016.100483488672,309.056755067288,1003.9463600455787,498.99909200915795C991.7922366024853,688.9414289510279,948.0543393660821,964.1333221947052,945.779595946045,1141.8614152543046C943.5048525260079,1319.589508313904,987.9278321830305,1395.6778862424715,990.2978995253563,1565.367650366754C992.6679668676821,1735.0574144910368,965.0496499208928,2060.894608394459,960,2160L 1920 2160 L 1920 -1080 Z" fill="url(&quot;#SvgjsLinearGradient1145&quot;)"/><path d="M1440,-1080C1430.197024194691,-945.9816068975535,1375.4132987024027,-537.4976168115503,1381.1821451681467,-275.8896413853211C1386.9509916338907,-14.281665959091924,1461.1285044611814,217.88273928622453,1474.6130787944644,489.64785255737524C1488.0976531277474,761.412965828526,1467.8584376335893,1076.3090136678122,1462.0895911678454,1354.701038241583C1456.3207447021014,1633.093062815354,1443.6815985279743,2025.7835063735972,1440,2160L 1920 2160 L 1920 -1080 Z" fill="url(&quot;#SvgjsLinearGradient1146&quot;)"/></g></g><defs><linearGradient x1="0.1" y1="0" x2="0" y2="1" id="SvgjsLinearGradient1143"><stop stop-color="#5d3190" offset="0"/><stop stop-color="#4d3190" offset="0"/></linearGradient><linearGradient x1="0.1" y1="0" x2="0" y2="1" id="SvgjsLinearGradient1144"><stop stop-color="#4b2875" offset="0"/><stop stop-color="#3e2875" offset="0.25"/></linearGradient><linearGradient x1="0.1" y1="0" x2="0" y2="1" id="SvgjsLinearGradient1145"><stop stop-color="#3a1e5a" offset="0"/><stop stop-color="#301e5a" offset="0.5"/></linearGradient><linearGradient x1="0.1" y1="0" x2="0" y2="1" id="SvgjsLinearGradient1146"><stop stop-color="#28153e" offset="0"/><stop stop-color="#21153e" offset="0.75"/></linearGradient><clipPath id="SvgjsClipPath1147"><rect width="1920" height="1080"/></clipPath></defs></svg>