<svg xmlns="http://www.w3.org/2000/svg" version="1.1" xmlns:xlink="http://www.w3.org/1999/xlink" xmlns:svgjs="http://svgjs.dev/svgjs" viewBox="0 0 1920 1080" class="overflow-hidden rounded-md drop-shadow-lg transition duration-300" style="overflow: hidden; height: 85vh;"><rect width="1920" height="1080" fill="#5d3190"/><g clip-path="url(&quot;#SvgjsClipPath1345&quot;)"><g transform="matrix(1.0873463619392143,0.3744033776257301,-0.3744033776257301,1.0873463619392143,120.10347052589009,-398.97235903694286)"><path d="M0,-1080C4.670639365903578,-967.6306730062752,34.779224747828955,-628.4371328592559,28.023836195421467,-405.78403803765076C21.26844764301398,-183.13094321604555,-44.622479992828524,49.17863183049397,-40.53233131444492,255.91856892963114C-36.44218263606131,462.65850602876833,40.37292454445382,632.0245183365225,52.56472826572309,834.6555845571722C64.75653198699236,1037.286650777822,41.37927905745789,1250.8142303463915,32.61849101317071,1471.7049662535294C23.85770296888353,1692.5957021606673,5.436415168861785,2045.284161042255,0,2160L 1920 2160 L 1920 -1080 Z" fill="url(&quot;#SvgjsLinearGradient1343&quot;)"/><path d="M960,-1080C952.276445376031,-1002.5137435931855,910.1437998901594,-758.9464818518622,913.6586722561863,-615.0824615591131C917.1735446222132,-471.2184412663639,979.1795539470086,-360.52959687141197,981.0892341961614,-216.81587824350507C982.9989144453143,-73.10215961559817,935.6754491605012,73.17622957403128,925.1167537511037,247.1998502083284C914.5580583417062,421.2234708426255,912.3995623191408,660.1192303728086,917.7370617397762,827.3258455622777C923.0745611604116,994.5324607517467,956.6548503493789,1114.3834902513165,957.1417502749161,1250.4395413451427C957.6286502004534,1386.495592438969,920.1820863388193,1492.0687423494253,920.658461293,1643.6621521252348C921.1348362471806,1795.2555619010443,953.4430768821667,2073.9436920208723,960,2160L 1920 2160 L 1920 -1080 Z" fill="url(&quot;#SvgjsLinearGradient1344&quot;)"/></g></g><defs><linearGradient x1="0.1" y1="0" x2="0" y2="1" id="SvgjsLinearGradient1343"><stop stop-color="#5d3190" offset="0"/><stop stop-color="#4d3190" offset="0"/></linearGradient><linearGradient x1="0.1" y1="0" x2="0" y2="1" id="SvgjsLinearGradient1344"><stop stop-color="#3a1e5a" offset="0"/><stop stop-color="#301e5a" offset="0.5"/></linearGradient><clipPath id="SvgjsClipPath1345"><rect width="1920" height="1080"/></clipPath></defs></svg>